<svg version="1.1" id="Layer_1" xmlns="http://www.w3.org/2000/svg" x="0" y="0" viewBox="0 0 357.8 59.1" style="enable-background:new 0 0 357.8 59.1" xml:space="preserve"><style>.st0{fill:#3fb281}</style><path class="st0" d="M303.7 17.6c7.1 0 14.2-.1 21.3 0 7.3.1 12.3 4.7 12.6 11.4.3 6.7-4.5 12.2-11.7 12.3-15 .3-30 .3-45 0-7.2-.1-12.1-5.7-11.9-12.2.2-6.6 5.4-11.5 12.6-11.6 7.4 0 14.8.1 22.1.1zM35.2 17.6c-7.2 0-14.5-.1-21.7 0C6 17.7.8 22.5.8 29.3c-.1 6.8 5 12 12.4 12.1 14.6.2 29.2.2 43.8 0 7.5-.1 12.4-5.3 12.3-12.2-.1-6.9-5.2-11.6-12.7-11.7-7.2 0-14.3.1-21.4.1zM214.2 17.6c-7.4 0-14.7-.1-22.1 0-7.1.1-12.3 4.9-12.6 11.6-.2 6.5 4.7 12.1 11.9 12.2 15 .3 30 .3 45 0 7.2-.1 12-5.6 11.7-12.3-.3-6.7-5.3-11.4-12.6-11.4-7-.2-14.2-.1-21.3-.1zM124.6 17.6c-7.4 0-14.7-.1-22.1 0-6.9.1-12 4.9-12.3 11.4-.3 6.4 4.4 12.1 11.3 12.3 15.2.4 30.5.4 45.7 0 7.2-.2 11.7-5.7 11.4-12.5-.3-6.6-5.3-11.1-12.4-11.2-7.2-.1-14.4 0-21.6 0z"/><path class="st0" d="M35.2 17.6c7.1 0 14.2-.1 21.3 0 7.6.1 12.6 4.8 12.7 11.7.1 6.9-4.8 12.1-12.3 12.2-14.6.2-29.2.2-43.8 0C5.7 41.3.7 36.1.8 29.3c0-6.8 5.2-11.6 12.7-11.7 7.2-.1 14.5 0 21.7 0zM214.2 17.6c7.1 0 14.2-.1 21.3 0 7.3.1 12.3 4.7 12.6 11.4.3 6.7-4.5 12.2-11.7 12.3-15 .3-30 .3-45 0-7.2-.1-12.1-5.7-11.9-12.2.2-6.6 5.4-11.5 12.6-11.6 7.4 0 14.8.1 22.1.1zM124.6 17.6c7.2 0 14.5-.1 21.7 0 7.1.1 12.1 4.6 12.4 11.2.3 6.8-4.2 12.4-11.4 12.5-15.2.3-30.5.3-45.7 0-6.9-.2-11.6-5.9-11.3-12.3.3-6.5 5.4-11.3 12.3-11.4 7.2-.1 14.6 0 22 0z"/></svg>