<svg xmlns="http://www.w3.org/2000/svg" viewBox="0 0 301.3 214.9" style="enable-background:new 0 0 301.3 214.9" xml:space="preserve"><path d="M179.6 168.4c1.5 0 2.5-.1 3.5 0 25.5 3.2 51.1 6.4 76.6 9.7 9 1.1 18 2.3 27 3.4 4 .5 5.2-.8 4.6-4.5-.5-2.7-.9-5.4-1.8-7.9-4.3-11.8-10.7-21.3-24.5-23.6-33-5.6-66-11.6-98.9-17.4-1.1-.2-2.7-.8-3.1-1.7-4.3-9.6-8.5-19.3-12.4-28.5 2.5-2.7 4.8-4.9 6.7-7.3 2-2.5 3.9-5.2 5.3-8.1 11.4-23.6 1.6-54.7-21.2-67.7C116.4.4 88 12.6 82.3 40.1c-3.8 18.2 1.1 34.3 13.3 48.2 5.9 6.7 11.9 13.3 17.4 20.3 3.7 4.7 6.6 10.1 10.4 16.1-16-2.8-29-9.3-42.1-15.7-18.6-9.1-36.9-8.6-54.6 2.5-18 11.3-23.2 35.6-11.1 53.1 11.9 17.2 29 24 49.1 22 17.2-1.7 31-9.6 38.5-26.2.4-.9 2.2-1.7 3.2-1.6 8.7.9 17.5 2.2 26.2 3.1 2.4.2 3.6 1.2 4.6 3.3 6 12.8 12.1 25.5 18 38.2 1 2.2 2.2 3 4.7 2.9 5.2-.2 10.4-.1 15.5-.1h19.8c-5.2-12.7-10.4-25.1-15.6-37.8z" style="fill:#fff"/><path d="M179.6 168.4c5.3 12.7 10.4 25.1 15.7 38h-19.8c-5.2 0-10.4-.1-15.5.1-2.4.1-3.7-.7-4.7-2.9-5.9-12.8-12.1-25.5-18-38.2-1-2.1-2.1-3.1-4.6-3.3-8.8-.9-17.5-2.2-26.2-3.1-1-.1-2.8.7-3.2 1.6-7.5 16.4-21.3 24.3-38.5 26-20.2 1.9-37.3-4.8-49.1-22-12.1-17.5-6.9-41.8 11.1-53.1 17.7-11.1 36.1-11.6 54.6-2.5 13.1 6.5 26.2 12.9 42.1 15.7-3.8-5.9-6.7-11.3-10.4-16.1-5.5-7-11.6-13.6-17.4-20.3-12.3-13.9-17.1-30-13.3-48.2 5.7-27.5 34-39.7 58.9-25.5 22.7 13 32.5 44.1 21.2 67.7-1.4 2.9-3.3 5.5-5.3 8.1-1.9 2.4-4.1 4.6-6.7 7.3 3.9 9.1 8.1 18.8 12.4 28.5.4.9 2 1.5 3.1 1.7 33 5.9 65.9 11.9 98.9 17.4 13.8 2.3 20.2 11.8 24.5 23.6.9 2.5 1.4 5.3 1.8 7.9.6 3.7-.6 4.9-4.6 4.5-9-1-18-2.2-27-3.4-25.5-3.2-51.1-6.5-76.6-9.7-.9.1-1.9.2-3.4.2zM105.9 52.5c.3 8.3 3.9 16.2 11.4 22.3 10.3 8.4 21.9 4.3 24.7-8.6 2.5-11.6-3.9-25.6-14.6-30.7-3-1.4-6.8-2.1-10-1.6-7.4.9-11.6 7.8-11.5 18.6zM58.2 162.2c7.1-.1 12.7-1.3 17.4-5.2 6-4.8 7.1-11.8 3.2-18.3-7.8-12.8-31.3-15.1-41.4-4.1-4.1 4.5-4.8 10.5-1.6 15.7 5.5 8.7 13.9 11.4 22.4 11.9z" style="fill:#3fb281"/></svg>